<svg
   xmlns="http://www.w3.org/2000/svg"
   viewBox="0 0 1000 999.76301">
  <path
     fill="#ed6516"
     d="m 247.29362,247.50339 a 357.20188,357.20188 0 0 1 505.18353,0 L 853.39459,146.58595 a 500.00006,500.00006 0 0 0 -707.3854,0 z" />
  <path
     fill="#ffffff"
     d="M 882.79827,178.37495 781.19275,280.16394 a 357.43124,357.43124 0 0 1 24.90826,404.12849 L 622.20191,500.34745 522.01841,264.75109 h -0.50459 v 318.16516 l 198.48626,198.48627 a 357.29363,357.29363 0 0 1 -440.36702,0 L 478.25694,582.91625 V 265.94376 L 377.56885,500.34745 193.62388,684.29243 A 357.3395,357.3395 0 0 1 218.57801,280.16394 L 116.97249,178.37495 a 500.00006,500.00006 0 1 0 766.05514,0 z" />
</svg>
